<svg width="32" height="32" viewBox="0 0 32 32" fill="none" xmlns="http://www.w3.org/2000/svg">
<g id="Tapcash/ic_common_money_out">
<path id="Icon" d="M13.9493 7.99954L14.6693 7.21287V11.9995C14.6693 12.3532 14.8097 12.6923 15.0598 12.9423C15.3098 13.1924 15.649 13.3329 16.0026 13.3329C16.3562 13.3329 16.6954 13.1924 16.9454 12.9423C17.1955 12.6923 17.3359 12.3532 17.3359 11.9995V7.21287L18.0559 7.9462C18.177 8.0829 18.3248 8.19328 18.4902 8.27051C18.6557 8.34774 18.8352 8.39017 19.0177 8.39517C19.2002 8.40017 19.3818 8.36764 19.5512 8.29958C19.7206 8.23153 19.8743 8.1294 20.0026 7.99954C20.1276 7.87559 20.2268 7.72812 20.2945 7.56564C20.3622 7.40316 20.397 7.22889 20.397 7.05287C20.397 6.87685 20.3622 6.70258 20.2945 6.5401C20.2268 6.37762 20.1276 6.23015 20.0026 6.1062L16.9493 3.05287C16.8225 2.93148 16.6729 2.83633 16.5093 2.77287C16.1847 2.63951 15.8206 2.63951 15.4959 2.77287C15.3323 2.83633 15.1827 2.93148 15.0559 3.05287L12.0026 6.05287C11.7445 6.31101 11.5994 6.66113 11.5994 7.0262C11.5994 7.39127 11.7445 7.74139 12.0026 7.99954C12.2607 8.25768 12.6109 8.4027 12.9759 8.4027C13.341 8.4027 13.6911 8.25768 13.9493 7.99954ZM16.0026 15.9995C15.2115 15.9995 14.4381 16.2341 13.7803 16.6737C13.1225 17.1132 12.6098 17.7379 12.3071 18.4688C12.0043 19.1997 11.9251 20.004 12.0795 20.7799C12.2338 21.5558 12.6148 22.2686 13.1742 22.828C13.7336 23.3874 14.4463 23.7683 15.2222 23.9227C15.9982 24.077 16.8024 23.9978 17.5333 23.6951C18.2642 23.3923 18.889 22.8796 19.3285 22.2218C19.768 21.564 20.0026 20.7907 20.0026 19.9995C20.0026 18.9387 19.5812 17.9213 18.831 17.1711C18.0809 16.421 17.0635 15.9995 16.0026 15.9995ZM16.0026 21.3329C15.7389 21.3329 15.4811 21.2547 15.2618 21.1082C15.0426 20.9617 14.8717 20.7534 14.7708 20.5098C14.6698 20.2661 14.6434 19.9981 14.6949 19.7394C14.7463 19.4808 14.8733 19.2432 15.0598 19.0567C15.2463 18.8703 15.4838 18.7433 15.7425 18.6918C16.0011 18.6404 16.2692 18.6668 16.5128 18.7677C16.7565 18.8686 16.9647 19.0395 17.1112 19.2588C17.2577 19.478 17.3359 19.7358 17.3359 19.9995C17.3359 20.3532 17.1955 20.6923 16.9454 20.9423C16.6954 21.1924 16.3562 21.3329 16.0026 21.3329ZM6.66927 19.9995C6.66927 20.2632 6.74747 20.521 6.89398 20.7403C7.04049 20.9596 7.24872 21.1305 7.49236 21.2314C7.73599 21.3323 8.00408 21.3587 8.26272 21.3073C8.52137 21.2558 8.75894 21.1288 8.94541 20.9423C9.13188 20.7559 9.25887 20.5183 9.31032 20.2597C9.36176 20.001 9.33536 19.7329 9.23444 19.4893C9.13353 19.2457 8.96263 19.0374 8.74336 18.8909C8.5241 18.7444 8.26631 18.6662 8.0026 18.6662C7.64898 18.6662 7.30984 18.8067 7.05979 19.0567C6.80975 19.3068 6.66927 19.6459 6.66927 19.9995ZM25.3359 19.9995C25.3359 19.7358 25.2577 19.478 25.1112 19.2588C24.9647 19.0395 24.7565 18.8686 24.5128 18.7677C24.2692 18.6668 24.0011 18.6404 23.7425 18.6918C23.4838 18.7433 23.2463 18.8703 23.0598 19.0567C22.8733 19.2432 22.7463 19.4808 22.6949 19.7394C22.6434 19.9981 22.6698 20.2661 22.7708 20.5098C22.8717 20.7534 23.0426 20.9617 23.2618 21.1082C23.4811 21.2547 23.7389 21.3329 24.0026 21.3329C24.3562 21.3329 24.6954 21.1924 24.9454 20.9423C25.1955 20.6923 25.3359 20.3532 25.3359 19.9995ZM26.6693 10.6662H21.3359C20.9823 10.6662 20.6432 10.8067 20.3931 11.0567C20.1431 11.3068 20.0026 11.6459 20.0026 11.9995C20.0026 12.3532 20.1431 12.6923 20.3931 12.9423C20.6432 13.1924 20.9823 13.3329 21.3359 13.3329H26.6693C27.0229 13.3329 27.362 13.4733 27.6121 13.7234C27.8621 13.9734 28.0026 14.3126 28.0026 14.6662V25.3329C28.0026 25.6865 27.8621 26.0256 27.6121 26.2757C27.362 26.5257 27.0229 26.6662 26.6693 26.6662H5.33594C4.98232 26.6662 4.64318 26.5257 4.39313 26.2757C4.14308 26.0256 4.0026 25.6865 4.0026 25.3329V14.6662C4.0026 14.3126 4.14308 13.9734 4.39313 13.7234C4.64318 13.4733 4.98232 13.3329 5.33594 13.3329H10.6693C11.0229 13.3329 11.362 13.1924 11.6121 12.9423C11.8621 12.6923 12.0026 12.3532 12.0026 11.9995C12.0026 11.6459 11.8621 11.3068 11.6121 11.0567C11.362 10.8067 11.0229 10.6662 10.6693 10.6662H5.33594C4.27507 10.6662 3.25766 11.0876 2.50751 11.8378C1.75736 12.5879 1.33594 13.6053 1.33594 14.6662V25.3329C1.33594 26.3937 1.75736 27.4112 2.50751 28.1613C3.25766 28.9114 4.27507 29.3329 5.33594 29.3329H26.6693C27.7301 29.3329 28.7476 28.9114 29.4977 28.1613C30.2478 27.4112 30.6693 26.3937 30.6693 25.3329V14.6662C30.6693 13.6053 30.2478 12.5879 29.4977 11.8378C28.7476 11.0876 27.7301 10.6662 26.6693 10.6662Z" fill="#FA6805"/>
</g>
</svg>
