<svg width="24" height="24" viewBox="0 0 24 24" fill="none" xmlns="http://www.w3.org/2000/svg">
<g id="Menu/ic_common_transfer">
<path id="Icon" d="M16.8671 9.70045C16.8071 9.70045 16.7471 9.72045 16.6771 9.72045L17.9471 5.91045C18.1271 5.37045 17.9871 4.79045 17.5871 4.39045C17.1871 3.99045 16.5971 3.85045 16.0671 4.03045L2.95705 8.40045C2.36705 8.60045 1.96705 9.13045 1.94705 9.75045C1.91705 10.3705 2.27705 10.9305 2.84705 11.1805L8.41705 13.5705L10.8171 19.1605C11.0571 19.7105 11.5871 20.0605 12.1771 20.0605C12.1971 20.0605 12.2171 20.0605 12.2371 20.0605C12.8571 20.0305 13.3871 19.6405 13.5871 19.0405L13.6471 18.8605C14.5271 19.5705 15.6371 20.0205 16.8671 20.0205C19.7071 20.0205 22.0171 17.7105 22.0171 14.8705C22.0171 12.0305 19.7071 9.72045 16.8671 9.72045V9.70045ZM12.1371 17.6805L10.0171 12.7405C9.86705 12.3905 9.58705 12.1105 9.23705 11.9605L4.30705 9.85045L14.1371 6.57045L10.2771 10.4405L11.5471 11.7105L15.4071 7.84045L14.6171 10.2305H14.6271C12.9071 11.0705 11.7171 12.8205 11.7171 14.8505C11.7171 15.7005 11.9371 16.4805 12.3071 17.1905L12.1471 17.6805H12.1371ZM16.8671 18.0005C15.1271 18.0005 13.7171 16.5905 13.7171 14.8505C13.7171 13.1105 15.1271 11.7005 16.8671 11.7005C18.6071 11.7005 20.0171 13.1105 20.0171 14.8505C20.0171 16.5905 18.6071 18.0005 16.8671 18.0005ZM16.4671 15.0805C16.6371 14.9905 16.7671 14.8605 16.8671 14.7005C16.9571 14.5405 17.0071 14.3605 17.0071 14.1705C17.0071 13.9605 16.9571 13.7705 16.8671 13.6105C16.7771 13.4405 16.6471 13.3105 16.4771 13.2205C16.3071 13.1205 16.1071 13.0805 15.8771 13.0805H14.4271V16.2505H15.3371V15.2305H15.5371L16.1471 16.2505H17.1471L16.4271 15.1105C16.4271 15.1105 16.4571 15.1005 16.4771 15.0905L16.4671 15.0805ZM15.3271 13.8605H15.8071C15.8971 13.8605 15.9771 13.8905 16.0371 13.9405C16.0971 14.0005 16.1271 14.0705 16.1271 14.1605C16.1271 14.2205 16.1171 14.2705 16.0871 14.3205C16.0571 14.3705 16.0271 14.4005 15.9771 14.4305C15.9271 14.4605 15.8771 14.4705 15.8171 14.4705H15.3371V13.8605H15.3271ZM18.3271 13.8305C18.2271 13.8805 18.1471 13.9505 18.0871 14.0205H18.0671L17.9971 13.7905H17.2671V17.1405H18.0871V16.0305H18.1071C18.1771 16.1105 18.2571 16.1705 18.3671 16.2105C18.4771 16.2505 18.5871 16.2805 18.6971 16.2805C18.9071 16.2805 19.0971 16.2305 19.2571 16.1405C19.4171 16.0505 19.5371 15.9005 19.6271 15.7105C19.7171 15.5205 19.7571 15.2905 19.7571 15.0105C19.7571 14.7305 19.7171 14.5005 19.6271 14.3105C19.5371 14.1205 19.4171 13.9805 19.2571 13.8805C19.0971 13.7805 18.9071 13.7405 18.6971 13.7405C18.5471 13.7405 18.4171 13.7705 18.3271 13.8205V13.8305ZM18.9471 15.0205C18.9471 15.1405 18.9271 15.2405 18.8971 15.3205C18.8571 15.4005 18.8071 15.4605 18.7471 15.5005C18.6871 15.5405 18.6071 15.5605 18.5271 15.5605C18.4471 15.5605 18.3671 15.5405 18.3071 15.5005C18.2371 15.4605 18.1871 15.4005 18.1571 15.3205C18.1171 15.2405 18.1071 15.1405 18.1071 15.0205C18.1071 14.9005 18.1271 14.8005 18.1571 14.7205C18.1971 14.6405 18.2471 14.5805 18.3071 14.5405C18.3671 14.5005 18.4471 14.4805 18.5271 14.4805C18.6571 14.4805 18.7571 14.5305 18.8371 14.6205C18.9171 14.7105 18.9571 14.8505 18.9571 15.0205H18.9471Z" fill="#3AA8A0"/>
</g>
</svg>
