<svg width="22" height="23" viewBox="0 0 22 23" fill="none" xmlns="http://www.w3.org/2000/svg">
<g id="CASA/ic_common_biaya">
<path id="Icon" d="M17.2519 10.5304V5.58813C17.2519 3.54368 13.7408 2.61035 10.4697 2.61035C7.19861 2.61035 3.6875 3.54368 3.6875 5.58813V15.6504C3.6875 17.4548 6.42528 18.3348 8.95861 18.557C10.0164 19.677 11.5097 20.3881 13.1631 20.3881C16.3453 20.3881 18.9408 17.7926 18.9408 14.6104C18.9408 13.0192 18.2919 11.5704 17.2431 10.5304H17.2519ZM5.47417 5.6148C5.62528 5.25924 7.31417 4.38813 10.4786 4.38813C13.6431 4.38813 15.2431 5.2148 15.4653 5.58813C15.2342 5.96146 13.5542 6.78813 10.4786 6.78813C7.40305 6.78813 5.62528 5.91702 5.47417 5.63257V5.6148ZM5.47417 15.6504V14.3792C6.01639 14.6281 6.65639 14.8326 7.41194 14.9837C7.4475 15.5526 7.56306 16.0859 7.74972 16.6015C6.22972 16.2992 5.53639 15.8192 5.46528 15.6504H5.47417ZM7.57194 13.197C6.15861 12.8859 5.5275 12.4326 5.47417 12.2904V11.0281C6.2475 11.3748 7.18972 11.6148 8.15861 11.7481C7.90083 12.1926 7.70528 12.6815 7.58083 13.197H7.57194ZM5.47417 8.93924V7.67702C6.79861 8.27257 8.67417 8.55702 10.4786 8.55702C12.2831 8.55702 14.1586 8.27257 15.4831 7.67702V9.31257C14.7719 9.00146 13.9986 8.83257 13.1808 8.83257C11.8119 8.83257 10.5586 9.31257 9.57194 10.1037C6.94083 9.95257 5.59861 9.19702 5.48306 8.93924H5.47417ZM13.1719 18.6104C10.9675 18.6104 9.17194 16.8148 9.17194 14.6104C9.17194 12.4059 10.9675 10.6104 13.1719 10.6104C15.3764 10.6104 17.1719 12.4059 17.1719 14.6104C17.1719 16.8148 15.3764 18.6104 13.1719 18.6104ZM12.7986 14.8326C12.9853 14.7348 13.1186 14.6015 13.2164 14.4326C13.3142 14.2637 13.3675 14.077 13.3675 13.8726C13.3675 13.6504 13.3231 13.4548 13.2164 13.277C13.1186 13.0992 12.9764 12.957 12.7986 12.8592C12.6208 12.7526 12.4075 12.7081 12.1586 12.7081H10.6208V16.077H11.5808V14.9926H11.7942L12.4431 16.077H13.5008L12.7364 14.8681C12.7364 14.8681 12.7719 14.8592 12.7897 14.8504L12.7986 14.8326ZM11.5897 13.5348H12.0964C12.1942 13.5348 12.2742 13.5615 12.3364 13.6237C12.3986 13.6859 12.4342 13.7659 12.4342 13.8637C12.4342 13.9259 12.4164 13.9792 12.3897 14.0326C12.3631 14.077 12.3186 14.1215 12.2653 14.1481C12.2119 14.1748 12.1586 14.1926 12.0964 14.1926H11.5897V13.5437V13.5348ZM15.1986 13.1704C15.0386 13.1704 14.9053 13.197 14.7986 13.2504C14.6919 13.3037 14.6119 13.3748 14.5497 13.4548H14.5231L14.4519 13.2148H13.6875V16.7792H14.5497V15.597H14.5764C14.6475 15.677 14.7364 15.7392 14.8519 15.7926C14.9675 15.837 15.0831 15.8637 15.1986 15.8637C15.4297 15.8637 15.6253 15.8104 15.7942 15.7126C15.9631 15.6059 16.0964 15.4548 16.1853 15.2592C16.2742 15.0637 16.3275 14.8148 16.3275 14.5215C16.3275 14.2281 16.2831 13.9792 16.1853 13.7837C16.0875 13.5881 15.9631 13.4281 15.7942 13.3304C15.6253 13.2237 15.4297 13.1792 15.1986 13.1792V13.1704ZM15.4031 14.8326C15.3675 14.9215 15.3142 14.9837 15.2431 15.0281C15.1719 15.0726 15.0919 15.0904 15.0031 15.0904C14.9142 15.0904 14.8342 15.0726 14.7631 15.0281C14.6919 14.9837 14.6386 14.9215 14.6031 14.8326C14.5675 14.7437 14.5497 14.637 14.5497 14.5126C14.5497 14.3881 14.5675 14.2815 14.6031 14.1926C14.6386 14.1037 14.6919 14.0415 14.7631 13.997C14.8342 13.9526 14.9142 13.9348 15.0031 13.9348C15.1364 13.9348 15.2519 13.9881 15.3319 14.0859C15.4119 14.1837 15.4564 14.3259 15.4564 14.5126C15.4564 14.637 15.4386 14.7437 15.3942 14.8326H15.4031Z" fill="#E3A200"/>
</g>
</svg>
